<svg viewBox="0 0 400 460" xmlns="http://www.w3.org/2000/svg" font-family="Arial, sans-serif">
  <text x="200" y="30" text-anchor="middle" font-size="22" font-weight="bold" fill="#111827">UNITUBE ARMOURED CABLE</text>
  <circle cx="200" cy="250" r="130" fill="#111827"/><circle cx="200" cy="250" r="114" fill="#f3f4f6"/><circle cx="200" cy="250" r="114" fill="none" stroke="#111827" stroke-width="8" stroke-dasharray="5 5"/><circle cx="200" cy="250" r="102" fill="#9ca3af"/><circle cx="200" cy="250" r="88" fill="#f1e6b8"/><circle cx="200" cy="250" r="74" fill="#dbeafe" stroke="#3b82f6" stroke-width="3"/><circle cx="200" cy="118" r="4" fill="#e5e7eb" stroke="#374151"/><circle cx="200" cy="382" r="4" fill="#e5e7eb" stroke="#374151"/><line x1="126" y1="250" x2="70" y2="272" stroke="#3b82f6" stroke-width="2"/>
  <circle cx="218.7" cy="257.9" r="4.2" fill="#1e3a8a"/>
    <circle cx="215.8" cy="276.1" r="4.2" fill="#ea580c"/>
    <circle cx="196.5" cy="290.6" r="4.2" fill="#15803d"/>
    <circle cx="183.3" cy="269.2" r="4.2" fill="#7c2d12"/>
    <circle cx="165.3" cy="258.1" r="4.2" fill="#6b7280"/>
    <circle cx="181.3" cy="242.1" r="4.2" fill="#111827"/>
    <circle cx="184.2" cy="223.9" r="4.2" fill="#dc2626"/>
    <circle cx="203.5" cy="209.4" r="4.2" fill="#eab308"/>
    <circle cx="216.7" cy="230.8" r="4.2" fill="#7c3aed"/>
    <circle cx="234.7" cy="241.9" r="4.2" fill="#ec4899"/>
</svg>
